# xmcd
#
# Track frame offsets: 
#        150
#        19187
#        38962
#        60940
#        77232
#        101172
#        118627
#        135217
#        153180
#        176025
#        190382
#        217230
#
# Disc length: 3027 seconds
#
# Revision: 0
# Processed by: cddbd v1.5.2PL0 Copyright (c) Steve Scherf et al.
# Submitted via: ExactAudioCopy v0.99pb5
#
DISCID=a10bd10c
DTITLE=The Relatives - Feud Of Love
DYEAR=1900
DGENRE=Blues
TTITLE0=More Than Just Love
TTITLE1=Commuter Blues
TTITLE2=Dangerous Times
TTITLE3=Are You Sure Or What?
TTITLE4=The Caring Eighties
TTITLE5=Devoted
TTITLE6=The Beat Of My Heart
TTITLE7=Why Me?
TTITLE8=Sometimes You'll Win
TTITLE9=God Knows
TTITLE10=Summer Fuss
TTITLE11=TBC
EXTD=
EXTT0=
EXTT1=
EXTT2=
EXTT3=
EXTT4=
EXTT5=
EXTT6=
EXTT7=
EXTT8=
EXTT9=
EXTT10=
EXTT11=
PLAYORDER=
